<?xml version="1.0" encoding="UTF-8"?>
<!-- Generated by Plugin DevKit -->
<svg xmlns="http://www.w3.org/2000/svg" width="48" height="48" viewBox="0 0 48 48">
  <defs>
    <linearGradient id="iconGradient" x1="0" y1="0" x2="48" y2="48" gradientUnits="userSpaceOnUse">
      <stop offset="0%" style="stop-color:#6AB9F2;stop-opacity:1" />
      <stop offset="100%" style="stop-color:#a36af2;stop-opacity:1" />
    </linearGradient>
  </defs>
  <rect x="0" y="0" width="6" height="6" fill="url(#iconGradient)"/>
  <rect x="42" y="0" width="6" height="6" fill="url(#iconGradient)"/>
  <rect x="12" y="6" width="6" height="6" fill="url(#iconGradient)"/>
  <rect x="30" y="6" width="6" height="6" fill="url(#iconGradient)"/>
  <rect x="12" y="12" width="6" height="6" fill="url(#iconGradient)"/>
  <rect x="18" y="12" width="6" height="6" fill="url(#iconGradient)"/>
  <rect x="24" y="12" width="6" height="6" fill="url(#iconGradient)"/>
  <rect x="30" y="12" width="6" height="6" fill="url(#iconGradient)"/>
  <rect x="12" y="18" width="6" height="6" fill="url(#iconGradient)"/>
  <rect x="18" y="18" width="6" height="6" fill="url(#iconGradient)"/>
  <rect x="24" y="18" width="6" height="6" fill="url(#iconGradient)"/>
  <rect x="30" y="18" width="6" height="6" fill="url(#iconGradient)"/>
  <rect x="0" y="24" width="6" height="6" fill="url(#iconGradient)"/>
  <rect x="6" y="24" width="6" height="6" fill="url(#iconGradient)"/>
  <rect x="12" y="24" width="6" height="6" fill="url(#iconGradient)"/>
  <rect x="18" y="24" width="6" height="6" fill="url(#iconGradient)"/>
  <rect x="24" y="24" width="6" height="6" fill="url(#iconGradient)"/>
  <rect x="30" y="24" width="6" height="6" fill="url(#iconGradient)"/>
  <rect x="36" y="24" width="6" height="6" fill="url(#iconGradient)"/>
  <rect x="42" y="24" width="6" height="6" fill="url(#iconGradient)"/>
  <rect x="6" y="30" width="6" height="6" fill="url(#iconGradient)"/>
  <rect x="18" y="30" width="6" height="6" fill="url(#iconGradient)"/>
  <rect x="24" y="30" width="6" height="6" fill="url(#iconGradient)"/>
  <rect x="36" y="30" width="6" height="6" fill="url(#iconGradient)"/>
  <rect x="0" y="36" width="6" height="6" fill="url(#iconGradient)"/>
  <rect x="42" y="36" width="6" height="6" fill="url(#iconGradient)"/>
  <rect x="18" y="42" width="6" height="6" fill="url(#iconGradient)"/>
  <rect x="24" y="42" width="6" height="6" fill="url(#iconGradient)"/>
</svg>
